<?xml version="1.0" encoding="UTF-8"?>
<svg id="_레이어_1" data-name="레이어_1" xmlns="http://www.w3.org/2000/svg" xmlns:xlink="http://www.w3.org/1999/xlink" version="1.1" viewBox="0 0 385 348">
  <!-- Generator: Adobe Illustrator 29.2.0, SVG Export Plug-In . SVG Version: 2.1.0 Build 108)  -->
  <defs>
    <style>
      .st0 {
        fill: url(#_무제_그라디언트_571);
      }

      .st1 {
        fill: url(#_무제_그라디언트_573);
      }

      .st2 {
        fill: url(#_무제_그라디언트_575);
      }

      .st3 {
        fill: url(#_무제_그라디언트_572);
      }

      .st4 {
        fill: url(#_무제_그라디언트_574);
      }

      .st5 {
        fill: url(#_무제_그라디언트_57);
      }
    </style>
    <linearGradient id="_무제_그라디언트_57" data-name="무제 그라디언트 57" x1="192.5" y1="147.1" x2="282.6" y2="147.1" gradientUnits="userSpaceOnUse">
      <stop offset="0" stop-color="#000"/>
      <stop offset=".5" stop-color="#fff"/>
      <stop offset="1" stop-color="#000"/>
    </linearGradient>
    <linearGradient id="_무제_그라디언트_571" data-name="무제 그라디언트 57" y1="161.6" x2="253.6" y2="161.6" xlink:href="#_무제_그라디언트_57"/>
    <linearGradient id="_무제_그라디언트_572" data-name="무제 그라디언트 57" y1="159" x2="258.8" y2="159" xlink:href="#_무제_그라디언트_57"/>
    <linearGradient id="_무제_그라디언트_573" data-name="무제 그라디언트 57" y1="156.9" x2="263.2" y2="156.9" xlink:href="#_무제_그라디언트_57"/>
    <linearGradient id="_무제_그라디언트_574" data-name="무제 그라디언트 57" y1="150.7" x2="275.4" y2="150.7" xlink:href="#_무제_그라디언트_57"/>
    <linearGradient id="_무제_그라디언트_575" data-name="무제 그라디언트 57" y1="148.8" x2="279.3" y2="148.8" xlink:href="#_무제_그라디언트_57"/>
  </defs>
  <path d="M70.4,192.2l-19.2-1.3.7-9.6C56.9,107.7,118.7,50.1,192.5,50.1s135.5,57.6,140.6,131.2l.7,9.6-19.2,1.3-.7-9.6c-4.4-63.5-57.7-113.2-121.4-113.2s-117.1,49.8-121.4,113.3l-.7,9.6Z"/>
  <path d="M327.6,264.1l-19.6-2.1c-4.7-.5-7.9-4.9-6.9-9.5l14.7-68.2c1-4.6,5.7-7.3,10.2-5.9l20,6.5c3.9,1.3,6.2,5.3,5.3,9.4l-15.1,63.8c-.9,3.9-4.6,6.5-8.5,6.1Z"/>
  <path d="M57.4,264.1l19.6-2.1c4.7-.5,7.9-4.9,6.9-9.5l-14.7-68.2c-1-4.6-5.7-7.3-10.2-5.9l-20,6.5c-3.9,1.3-6.2,5.3-5.3,9.4l15.1,63.8c.9,3.9,4.6,6.5,8.5,6.1Z"/>
  <g>
    <path d="M192.5,86.5c-58.4,0-105.7,47.3-105.7,105.7s47.3,105.7,105.7,105.7,105.7-47.3,105.7-105.7-47.3-105.7-105.7-105.7ZM192.5,228c-19.8,0-35.8-16-35.8-35.8s16-35.8,35.8-35.8,35.8,16,35.8,35.8-16,35.8-35.8,35.8Z"/>
    <g>
      <path class="st5" d="M282.6,192.2h-1.9c0-48.6-39.6-88.2-88.2-88.2v-1.9c49.7,0,90.1,40.4,90.1,90.2Z"/>
      <path class="st0" d="M253.6,192.2h-1.9c0-32.6-26.6-59.2-59.2-59.2v-1.9c33.7,0,61.1,27.4,61.1,61.1Z"/>
      <path class="st3" d="M258.8,192.2h-1.9c0-35.5-28.9-64.4-64.4-64.4v-1.9c36.6,0,66.3,29.8,66.3,66.3Z"/>
      <path class="st1" d="M263.2,192.2h-1.9c0-37.9-30.9-68.8-68.8-68.8v-1.9c39,0,70.7,31.7,70.7,70.7Z"/>
      <path class="st4" d="M275.4,192.2h-1.9c0-44.7-36.3-81-81-81v-1.9c45.7,0,82.9,37.2,82.9,82.9Z"/>
      <path class="st2" d="M279.3,192.2h-1.9c0-46.8-38.1-84.9-84.9-84.9v-1.9c47.9,0,86.8,39,86.8,86.8Z"/>
    </g>
  </g>
</svg>