<?xml version="1.0" standalone="no"?>
<!DOCTYPE svg PUBLIC "-//W3C//DTD SVG 20010904//EN"
 "http://www.w3.org/TR/2001/REC-SVG-20010904/DTD/svg10.dtd">
<svg version="1.0" xmlns="http://www.w3.org/2000/svg"
 width="626.000000pt" height="626.000000pt" viewBox="0 0 626.000000 626.000000"
 preserveAspectRatio="xMidYMid meet">

<g transform="translate(0.000000,626.000000) scale(0.100000,-0.100000)"
fill="#000000" stroke="none">
<path d="M2495 5161 c-22 -9 -96 -88 -135 -144 -35 -51 -74 -51 -90 -2 -9 28
-22 40 -63 59 -62 29 -141 43 -151 27 -4 -6 -22 -11 -41 -11 -19 0 -37 -5 -40
-11 -4 -5 -18 -14 -31 -19 -13 -5 -29 -22 -34 -36 -6 -15 -22 -40 -35 -56 -16
-18 -25 -42 -25 -62 0 -29 -3 -33 -23 -29 -13 3 -41 -3 -62 -11 -21 -9 -46
-14 -56 -11 -10 3 -36 -3 -58 -15 -22 -11 -47 -20 -56 -20 -9 0 -18 -7 -21
-15 -4 -8 -14 -15 -24 -15 -10 0 -23 -7 -30 -15 -7 -8 -21 -15 -31 -15 -10 0
-26 -11 -35 -25 -9 -13 -24 -27 -34 -30 -10 -3 -26 -26 -36 -50 -9 -25 -27
-59 -40 -77 -13 -17 -24 -39 -24 -47 0 -8 -9 -24 -19 -35 -14 -16 -20 -42 -25
-104 -3 -46 -8 -106 -12 -133 -4 -27 -2 -68 4 -92 6 -23 13 -73 15 -112 4 -54
13 -88 41 -147 20 -43 41 -78 46 -78 5 0 14 -18 20 -40 6 -21 14 -42 19 -45 5
-3 7 -14 4 -25 -3 -11 2 -31 11 -45 9 -13 16 -35 16 -48 0 -13 9 -32 20 -42
22 -20 50 -71 50 -90 0 -19 64 -98 105 -129 20 -15 59 -36 87 -46 28 -9 58
-24 68 -32 19 -17 47 -25 139 -39 36 -6 73 -15 83 -20 10 -6 23 -7 28 -4 5 3
25 -1 44 -9 26 -11 78 -14 206 -14 94 0 174 -3 178 -6 3 -4 -1 -29 -11 -56
-13 -36 -15 -55 -7 -75 8 -20 6 -32 -5 -48 -8 -12 -15 -34 -15 -49 0 -37 -13
-35 -46 7 -15 19 -37 38 -50 41 -13 3 -24 11 -24 16 0 17 -39 60 -68 76 -128
70 -166 79 -219 51 -82 -43 -88 -48 -94 -81 -4 -18 -13 -47 -20 -65 -10 -25
-10 -37 -1 -59 12 -24 16 -26 50 -19 93 17 122 21 127 17 2 -3 -11 -27 -30
-54 -38 -52 -39 -73 -5 -118 l18 -24 68 23 c88 30 116 24 182 -39 29 -28 55
-50 58 -50 22 0 59 -98 68 -178 2 -24 12 -52 22 -63 16 -18 16 -20 -1 -39 -10
-11 -22 -20 -27 -20 -13 0 -88 -63 -88 -74 0 -5 -6 -17 -13 -25 -34 -40 -65
-169 -74 -307 -5 -82 -4 -92 14 -105 11 -8 24 -37 32 -73 9 -42 18 -60 32 -63
10 -3 19 -13 19 -22 0 -9 5 -22 10 -27 7 -7 -4 -18 -37 -35 -68 -34 -113 -83
-113 -123 0 -43 36 -76 89 -83 23 -3 44 -10 47 -14 3 -5 24 -9 47 -9 23 0 55
-7 71 -15 15 -8 47 -15 70 -15 23 0 52 -7 64 -16 13 -9 31 -13 43 -9 11 4 25
2 32 -3 7 -6 29 -13 49 -17 34 -7 39 -5 48 20 6 15 8 70 5 127 -6 115 1 127
67 128 20 0 40 5 43 10 3 6 17 10 31 10 14 0 41 12 60 27 22 16 47 26 67 25
17 0 37 4 44 10 10 8 13 6 13 -6 0 -9 11 -37 25 -64 13 -26 33 -68 44 -93 11
-26 26 -49 33 -53 13 -6 37 -22 94 -61 16 -11 41 -32 56 -47 15 -17 37 -28 52
-28 31 0 33 -11 6 -35 -11 -10 -20 -22 -20 -28 0 -5 -14 -25 -31 -44 -24 -28
-29 -41 -24 -62 10 -40 25 -50 105 -68 90 -20 166 -21 209 -4 22 10 35 10 44
3 7 -6 58 -14 113 -18 97 -6 102 -6 122 17 12 12 22 28 22 35 0 6 7 17 15 24
7 6 17 33 20 58 4 26 11 56 17 68 6 13 7 66 3 140 -10 187 -12 209 -20 235
-20 61 -13 76 67 150 43 39 80 81 83 93 10 35 28 69 52 99 13 16 23 34 23 40
1 16 42 62 63 70 9 3 17 15 17 26 0 11 14 30 30 43 17 12 30 27 30 33 0 6 17
27 39 48 21 20 41 49 44 64 7 34 65 212 78 235 23 44 3 118 -32 118 -24 0 -99
-41 -99 -55 -1 -16 -98 -74 -136 -81 -19 -3 -36 -10 -39 -14 -9 -15 -89 16
-98 38 -6 12 -18 24 -28 27 -9 3 -20 12 -23 20 -3 8 -12 15 -20 15 -9 0 -20 9
-26 20 -6 11 -17 20 -25 20 -8 0 -15 4 -15 9 0 5 -17 19 -37 32 -50 29 -93 69
-93 86 0 7 -10 17 -22 22 -13 5 -43 27 -67 50 -24 23 -48 41 -53 41 -4 0 -8 5
-8 11 0 10 -110 123 -127 131 -5 1 -31 32 -60 68 -28 36 -63 76 -77 89 -14 14
-26 34 -26 45 0 24 -42 110 -66 137 -11 12 -13 22 -6 36 5 10 20 42 33 72 13
30 32 62 42 72 10 9 23 37 28 61 5 23 13 52 18 63 5 11 21 55 35 98 21 63 24
85 17 117 -6 28 -5 42 3 49 17 14 16 325 -1 342 -8 8 -9 18 -3 30 7 11 7 20 0
24 -17 10 -43 75 -42 105 0 16 -6 34 -14 41 -9 7 -22 25 -30 40 -7 15 -22 30
-33 34 -11 3 -24 19 -30 36 -5 16 -17 32 -26 35 -8 3 -15 12 -15 19 0 8 -8 16
-18 19 -12 4 -24 27 -36 69 -30 107 -75 187 -133 233 -47 38 -58 43 -126 49
-41 4 -98 5 -128 1 -52 -5 -151 -45 -164 -66 -3 -5 -15 -10 -26 -10 -11 0 -22
-7 -25 -15 -6 -16 -46 -19 -77 -6 -17 6 -16 9 5 34 13 15 29 27 35 27 6 0 19
12 29 28 9 15 24 32 32 38 23 17 7 44 -26 44 -32 0 -122 -81 -143 -130 -8 -17
-24 -31 -39 -35 -14 -3 -33 -8 -42 -11 -41 -12 -11 32 86 127 72 72 67 111 -9
80z m-342 -133 c12 -6 28 -14 36 -18 28 -13 22 -29 -11 -32 -26 -2 -34 -8 -36
-26 -2 -14 4 -29 15 -37 21 -17 96 -19 124 -5 16 9 19 7 19 -13 0 -34 25 -54
45 -37 8 7 15 19 15 26 0 16 5 17 48 8 28 -6 31 -10 34 -48 2 -33 7 -41 23
-41 15 0 23 11 33 42 15 45 46 62 82 43 10 -5 37 -10 60 -10 34 0 46 6 67 30
52 62 163 97 252 80 29 -5 57 -8 61 -5 4 3 10 -2 14 -10 3 -8 14 -15 24 -15
25 0 72 -51 72 -78 0 -13 6 -25 14 -28 15 -6 36 -84 36 -134 0 -19 5 -30 14
-30 7 0 32 -21 55 -47 23 -27 56 -64 74 -84 43 -48 55 -71 63 -118 4 -23 13
-46 20 -52 8 -6 14 -28 14 -48 0 -20 6 -47 13 -61 15 -29 13 -228 -3 -270 -5
-14 -9 -58 -7 -98 2 -61 -1 -75 -15 -83 -12 -7 -18 -22 -18 -47 0 -32 -17 -79
-51 -142 -5 -8 -16 -31 -25 -50 -8 -19 -20 -42 -25 -50 -5 -8 -13 -25 -18 -36
-5 -12 -17 -24 -26 -28 -10 -4 -15 -15 -13 -29 2 -15 -10 -38 -35 -67 -39 -46
-41 -57 -15 -73 11 -7 24 -3 47 14 36 27 64 19 69 -20 4 -26 39 -80 79 -121
35 -36 83 -96 83 -104 0 -9 152 -156 162 -156 4 0 8 -6 8 -12 0 -14 81 -87
118 -107 12 -6 22 -18 22 -25 0 -12 100 -96 115 -96 3 0 34 -29 69 -65 35 -36
71 -65 80 -65 9 0 16 -4 16 -10 0 -5 17 -20 38 -33 43 -28 144 -34 163 -10 6
7 18 13 26 13 8 0 43 20 79 45 35 25 66 45 69 45 17 0 -35 -173 -61 -201 -9
-10 -14 -27 -11 -39 3 -11 1 -20 -3 -20 -11 0 -94 -81 -103 -100 -4 -8 -23
-35 -42 -60 -45 -58 -80 -111 -112 -167 -14 -25 -37 -56 -51 -68 -14 -12 -26
-31 -27 -42 -1 -25 -22 -53 -39 -53 -15 0 -96 -78 -96 -92 0 -6 7 -20 17 -30
12 -13 16 -39 17 -97 1 -44 4 -83 8 -87 4 -4 5 -18 2 -31 -4 -13 -2 -29 4 -36
14 -16 8 -143 -7 -161 -8 -9 -10 -27 -6 -45 5 -23 1 -35 -14 -50 -12 -12 -21
-28 -21 -36 0 -10 -10 -15 -32 -15 l-33 0 -1 71 c0 71 -11 93 -40 82 -17 -6
-28 -64 -20 -106 l6 -32 -85 -1 -85 0 4 48 c2 26 7 52 11 58 8 14 -13 40 -32
40 -20 0 -46 -67 -45 -119 l1 -43 -32 7 c-18 3 -49 9 -69 12 -38 6 -51 26 -23
36 8 4 21 21 29 39 19 41 36 62 59 71 21 8 22 25 1 65 -15 32 -37 41 -49 22
-4 -6 -12 -4 -21 5 -9 8 -21 15 -28 15 -7 0 -21 9 -31 20 -10 11 -23 20 -30
20 -6 0 -22 11 -35 25 -13 14 -29 25 -36 25 -7 0 -21 17 -31 38 -9 20 -33 62
-52 92 -33 53 -35 58 -34 145 1 100 26 215 48 228 8 4 15 16 15 25 1 26 51 75
103 99 33 16 47 29 47 43 0 31 -21 33 -77 7 -58 -26 -113 -77 -113 -103 0 -9
-15 -45 -34 -79 -40 -72 -46 -98 -48 -187 -1 -84 -7 -94 -40 -68 -15 11 -31
20 -37 20 -6 0 -26 13 -44 30 -19 16 -38 30 -42 30 -11 0 -98 84 -172 167 -95
104 -123 140 -123 154 0 8 -11 26 -24 40 -46 49 -98 197 -126 354 -5 28 -13
74 -19 103 -14 74 1 306 20 318 5 3 9 28 9 57 0 28 5 75 12 104 11 45 16 53
40 58 15 4 32 4 37 1 10 -7 95 11 123 25 10 5 31 9 48 9 16 0 30 5 30 10 0 6
8 10 18 10 9 0 34 9 55 20 20 11 44 20 52 20 9 0 27 11 40 24 13 14 32 26 42
28 12 2 18 12 18 28 0 23 -3 25 -39 23 -22 -2 -47 -10 -56 -18 -9 -8 -24 -15
-33 -15 -9 0 -25 -9 -35 -20 -11 -12 -43 -24 -78 -31 -32 -6 -66 -14 -74 -17
-8 -3 -19 -6 -25 -7 -5 -1 -21 -5 -35 -10 -28 -10 -58 -12 -182 -15 -47 -1
-100 1 -117 5 -17 3 -36 3 -43 -1 -22 -14 -155 -6 -266 16 -172 33 -212 43
-212 51 0 4 -17 13 -37 20 -91 29 -173 80 -173 107 0 6 -4 12 -9 14 -5 2 -20
28 -34 58 -23 51 -23 56 -7 62 9 3 27 19 39 34 30 38 96 46 169 21 32 -12 58
-15 65 -10 7 5 41 7 77 6 90 -5 193 -4 198 2 6 6 32 -22 32 -35 0 -7 9 -25 21
-41 12 -17 24 -42 28 -57 4 -15 15 -28 23 -30 25 -5 88 25 95 45 4 10 24 35
45 55 21 21 38 44 38 51 0 18 57 37 109 37 23 0 58 7 79 16 35 16 93 18 307
10 34 -1 41 2 49 26 5 15 7 30 3 34 -3 3 -55 8 -114 10 -59 3 -119 5 -133 6
-42 3 -120 -9 -134 -21 -7 -6 -21 -9 -30 -5 -8 3 -30 1 -48 -5 -47 -17 -211
-26 -453 -26 -280 1 -380 8 -403 29 -10 9 -24 16 -30 16 -28 0 -124 55 -132
75 -5 12 -16 25 -24 28 -9 4 -22 19 -28 34 -7 15 -19 39 -29 53 -10 16 -19 58
-23 117 -4 50 -12 106 -18 123 -7 22 -7 38 0 53 6 12 13 62 16 110 4 58 11 94
21 103 13 14 22 39 39 116 3 15 15 32 26 38 11 6 20 19 20 30 0 13 12 25 37
35 21 9 40 20 43 25 14 22 168 94 210 97 180 14 332 -5 407 -53 12 -8 31 -14
42 -14 11 0 23 -4 26 -10 11 -18 55 -12 55 8 -1 34 -47 72 -90 72 -12 0 -42
12 -68 26 -33 19 -66 28 -112 31 -36 2 -71 5 -77 5 -22 2 -14 43 12 68 14 13
25 29 25 36 0 25 82 61 143 63 15 1 37 -4 50 -11z m-609 -1317 c6 -8 -3 -21
-26 -39 -15 -12 -19 -10 -31 15 -20 40 -13 54 24 41 16 -5 31 -13 33 -17z
m737 -89 c-11 -8 -21 -20 -21 -27 0 -26 -24 -34 -49 -16 -16 13 -22 25 -19 47
3 27 6 29 53 34 56 6 74 -13 36 -38z m-245 -546 c11 -45 2 -61 -37 -64 -35 -3
-36 -2 -31 27 2 18 10 31 18 31 8 0 17 7 20 15 9 22 23 18 30 -9z m129 -6 c16
-16 35 -30 42 -30 7 0 18 -11 23 -25 5 -14 14 -25 19 -25 12 0 121 -105 121
-116 0 -4 7 -15 16 -25 12 -13 15 -28 10 -54 -4 -19 -10 -35 -14 -35 -4 0 -25
17 -48 38 -45 40 -74 57 -116 66 -18 4 -30 15 -34 31 -3 13 -17 31 -30 40 -13
8 -24 25 -24 36 0 12 -9 34 -21 50 -14 20 -19 38 -15 54 9 34 36 32 71 -5z
m-45 -199 c0 -12 -20 -25 -27 -18 -7 7 6 27 18 27 5 0 9 -4 9 -9z m350 -549
c0 -16 9 -37 20 -47 11 -10 20 -28 20 -40 0 -12 12 -32 26 -46 14 -13 32 -39
40 -58 8 -19 23 -41 34 -48 11 -8 20 -22 20 -32 0 -17 24 -44 45 -52 15 -6 90
-90 104 -116 6 -13 22 -25 35 -29 13 -3 40 -25 60 -50 21 -24 46 -44 56 -44
47 0 11 -24 -75 -50 -150 -46 -159 -54 -159 -148 0 -37 3 -84 7 -105 l8 -38
-31 16 c-17 9 -35 13 -41 10 -21 -14 -38 14 -28 49 8 30 -1 86 -15 86 -22 0
-36 -17 -36 -44 0 -17 -7 -39 -14 -48 -14 -20 -51 -24 -61 -8 -3 6 -15 10 -26
10 -27 0 -36 28 -14 44 27 20 15 50 -21 54 -27 3 -34 -2 -51 -35 -19 -36 -23
-38 -64 -35 -53 4 -60 10 -31 29 12 9 22 22 22 29 0 8 5 14 11 14 6 0 27 7 47
16 21 9 52 22 70 30 34 15 44 50 17 60 -9 4 -27 26 -41 49 -14 24 -31 45 -38
48 -7 3 -16 23 -19 45 -2 23 -14 51 -25 63 -18 19 -20 31 -16 88 9 113 25 199
40 212 8 6 14 20 14 31 0 18 86 118 103 118 4 0 7 -13 7 -28z"/>
<path d="M2846 4833 c-51 -13 -77 -26 -149 -76 -35 -24 -70 -128 -48 -141 6
-4 27 -2 46 5 24 9 36 21 40 40 4 18 18 32 43 44 20 10 44 22 53 26 10 4 43 8
76 7 72 -1 100 7 108 32 10 30 -10 55 -53 68 -47 14 -42 14 -116 -5z"/>
<path d="M2851 4594 c-26 -33 -27 -58 -1 -84 27 -27 66 -25 95 5 31 31 31 34
-4 73 -36 39 -63 41 -90 6z"/>
<path d="M1595 4423 c-54 -13 -97 -92 -74 -134 16 -31 53 -21 57 16 5 38 29
65 58 65 32 0 65 -37 58 -65 -7 -30 18 -50 45 -35 22 11 26 49 12 100 -12 43
-89 69 -156 53z"/>
<path d="M1964 4410 c-27 -11 -81 -76 -89 -108 -8 -33 18 -62 42 -46 10 6 20
19 23 30 11 42 34 64 68 64 47 0 79 -25 87 -66 7 -40 30 -54 51 -32 12 12 13
24 5 57 -18 84 -109 133 -187 101z"/>
<path d="M1607 4332 c-23 -25 -21 -39 4 -52 31 -17 69 -4 69 23 0 45 -43 62
-73 29z"/>
<path d="M1967 4312 c-23 -25 -21 -37 6 -55 31 -20 87 -16 101 6 9 15 6 23
-17 43 -33 29 -68 31 -90 6z"/>
<path d="M2694 3027 c-33 -23 -73 -49 -91 -56 -37 -15 -63 -50 -63 -84 0 -31
18 -47 52 -47 38 0 44 -20 19 -61 -12 -19 -21 -37 -21 -40 0 -4 14 -14 32 -22
29 -14 35 -14 61 1 15 9 41 31 57 47 49 50 55 54 143 66 61 8 93 9 115 1 36
-12 67 4 57 29 -18 47 -217 48 -308 2 -26 -13 -28 -12 -37 12 -30 80 10 125
105 119 72 -4 147 -18 171 -32 17 -9 25 -8 40 2 17 13 17 15 2 38 -18 28 -79
48 -163 54 -27 2 -64 6 -81 9 -26 4 -42 -2 -90 -38z m-54 -117 c0 -5 -7 -10
-16 -10 -8 0 -12 5 -9 10 3 6 10 10 16 10 5 0 9 -4 9 -10z m50 -121 c0 -5 -7
-9 -15 -9 -9 0 -12 6 -9 15 6 15 24 11 24 -6z"/>
</g>
</svg>
